<?xml version="1.0" encoding="UTF-8" standalone="no"?>

<svg
   xmlns:svg="http://www.w3.org/2000/svg"
   xmlns="http://www.w3.org/2000/svg"
   width="124.53267mm"
   height="27.914171mm"
   viewBox="0 0 124.53266 27.914171"
   version="1.1"
   id="SVGRoot">
  <defs
     id="defs3747" />
  <g
     id="layer1"
     transform="translate(-0.74376837,-10.129373)">
    <g
       id="g3800">
      <path
         id="path14"
         style="fill:#66c430;fill-opacity:1;fill-rule:evenodd;stroke:none;stroke-width:0.03307291"
         d="M 43.264116,17.999274 25.437878,10.129373 16.36856,21.531719 27.048043,30.3381 43.264116,17.999274" />
      <path
         id="path16"
         style="fill:#224d69;fill-opacity:1;fill-rule:evenodd;stroke:none;stroke-width:0.03307291"
         d="m 7.9400964,15.666246 -4.551031,-3.877388 -2.64529703,6.539016 3.53248703,4.304625 3.663841,-6.966253" />
      <path
         id="path18"
         style="fill:#369e9b;fill-opacity:1;fill-rule:evenodd;stroke:none;stroke-width:0.03307291"
         d="M 4.6376864,23.092424 9.4844577,28.925065 14.9885,21.696019 8.4165094,16.109827 4.6376864,23.092424" />
      <path
         id="path20"
         style="fill:#319647;fill-opacity:1;fill-rule:evenodd;stroke:none;stroke-width:0.03307291"
         d="m 26.012785,31.143254 -10.268592,-8.790036 -5.7503493,7.196215 6.9825973,8.494112 9.036344,-6.900291" />
      <path
         id="path22"
         style="fill:#231f20;fill-opacity:1;fill-rule:nonzero;stroke:none;stroke-width:0.04402529"
         d="M 57.490378,29.337022 H 49.982834 V 19.079431 h 2.465584 v 8.503177 h 5.04196 v 1.754414" />
      <path
         id="path24"
         style="fill:#231f20;fill-opacity:1;fill-rule:nonzero;stroke:none;stroke-width:0.04402529"
         d="M 68.441565,29.337022 H 60.459914 V 19.079429 h 7.823655 v 1.754404 h -5.357973 v 2.355109 h 4.836359 v 1.754174 h -4.836359 v 2.639492 h 5.515969 v 1.754414" />
      <path
         id="path26"
         style="fill:#231f20;fill-opacity:1;fill-rule:nonzero;stroke:none;stroke-width:0.04402529"
         d="m 81.076012,29.337022 h -2.497173 l -4.962772,-7.112386 v 7.112386 H 71.419139 V 19.079429 h 2.496998 l 4.962946,7.001753 v -7.001753 h 2.196929 v 10.257593" />
      <path
         id="path28"
         style="fill:#231f20;fill-opacity:1;fill-rule:nonzero;stroke:none;stroke-width:0.04402529"
         d="m 91.192815,26.365708 v -4.220005 c 0,-0.495082 -0.200169,-0.837696 -0.600502,-1.027494 -0.400718,-0.189556 -1.006513,-0.284376 -1.817777,-0.284376 h -1.88079 v 6.748775 h 1.801896 c 0.948234,0 1.601527,-0.07116 1.959863,-0.213433 0.357963,-0.142271 0.53731,-0.476542 0.53731,-1.003471 z m 2.465775,-4.172707 v 4.172707 c 0,1.159178 -0.358518,1.943972 -1.074808,2.354879 -0.716668,0.410981 -1.975761,0.616435 -3.777469,0.616435 H 84.42816 V 19.079429 h 4.362259 c 1.738707,0 2.98455,0.216231 3.737921,0.647991 0.753185,0.432122 1.13025,1.254152 1.13025,2.465581"
       />
      <path
         id="path30"
         style="fill:#231f20;fill-opacity:1;fill-rule:nonzero;stroke:none;stroke-width:0.04402529"
         d="m 96.869979,29.337022 h 2.465582 V 19.079421 h -2.465582 z" />
      <path
         id="path32"
         style="fill:#231f20;fill-opacity:1;fill-rule:nonzero;stroke:none;stroke-width:0.04402529"
         d="m 112.34308,29.337022 h -2.49716 l -4.96278,-7.112386 v 7.112386 h -2.1971 V 19.079431 h 2.49736 l 4.96277,7.001751 v -7.001751 h 2.19691 v 10.257591"  />
      <path
         id="path34"
         style="fill:#231f20;fill-opacity:1;fill-rule:nonzero;stroke:none;stroke-width:0.04402529"
         d="m 122.81085,26.523704 v -4.504515 c 0,-0.495156 -0.20315,-0.842877 -0.60843,-1.043234 -0.40605,-0.199849 -1.00369,-0.300273 -1.79414,-0.300273 -0.80067,0 -1.40137,0.09763 -1.80171,0.292515 -0.40054,0.195256 -0.6005,0.54526 -0.6005,1.050992 v 4.504515 c 0,0.263548 0.0682,0.48201 0.20536,0.6559 0.13681,0.17391 0.33426,0.297979 0.59272,0.371373 0.25788,0.07398 0.50572,0.124167 0.74277,0.150034 0.23681,0.02667 0.52938,0.03954 0.87714,0.03954 0.3477,0 0.64004,-0.01303 0.87726,-0.03954 0.23704,-0.02586 0.48209,-0.07606 0.73486,-0.150034 0.25295,-0.07336 0.44498,-0.197465 0.57702,-0.371373 0.13167,-0.173884 0.1975,-0.392352 0.1975,-0.6559 z m 2.46559,-4.488642 v 4.488642 c 0,0.579635 -0.15279,1.074795 -0.45842,1.485703 -0.30574,0.410984 -0.71668,0.719162 -1.2328,0.924615 -0.51631,0.205448 -1.03282,0.350382 -1.54893,0.43478 -0.51649,0.08401 -1.06421,0.126379 -1.64373,0.126379 -0.54789,0 -1.06154,-0.03443 -1.54098,-0.102722 -0.47961,-0.0685 -0.99062,-0.197539 -1.53324,-0.387257 -0.5428,-0.189778 -0.97452,-0.495159 -1.29579,-0.916856 -0.32164,-0.421179 -0.48206,-0.942787 -0.48206,-1.56463 v -4.488645 c 0,-0.526694 0.1184,-0.990222 0.35548,-1.391011 0.23728,-0.400261 0.52161,-0.705639 0.85348,-0.91663 0.33182,-0.210778 0.73502,-0.381794 1.20914,-0.513642 0.47412,-0.13149 0.89546,-0.213432 1.26436,-0.244997 0.36876,-0.03165 0.75868,-0.0473 1.16961,-0.0473 0.42134,0 0.81903,0.01572 1.19346,0.0473 0.37366,0.03158 0.79818,0.113535 1.27231,0.244997 0.47395,0.131855 0.87959,0.302859 1.21692,0.513642 0.33694,0.211002 0.62148,0.513854 0.85343,0.908718 0.23165,0.395251 0.34776,0.861426 0.34776,1.398923"
         />
    </g>
  </g>
</svg>
